<svg data-name="Layer 1" xmlns="http://www.w3.org/2000/svg" viewBox="0 0 30 30"><g data-name="Adobe After Effects CC icon"><path fill="#1f0040" d="M2.63 3.11h24.75v23.78H2.63V3.11z"/><path d="M1.5 2v26h27V2zm1.12 1.11h24.76v23.78H2.62zm6.51 13.61L8.24 20c0 .09-.06.13-.17.13H6.42c-.12 0-.14 0-.12-.17L9.5 9a3.18 3.18 0 00.11-.91c0-.08 0-.12.09-.12h2.36c.08 0 .12 0 .14.12l3.58 12c0 .09 0 .15-.09.15h-1.86a.16.16 0 01-.17-.11l-.93-3.34zm3.16-1.8C12 13.69 11.21 11 10.93 9.7c-.23 1.3-.85 3.5-1.31 5.22zm6 1.14a2.24 2.24 0 002.45 2.51 4.36 4.36 0 001.83-.35c.08 0 .14 0 .14.08v1.39a.22.22 0 01-.11.22 5.15 5.15 0 01-2.26.42c-3 0-4.09-2.16-4.09-4.59 0-2.62 1.38-4.76 3.79-4.76s3.31 2 3.31 3.69a5.24 5.24 0 01-.09 1.17c0 .09-.05.13-.14.15a17.23 17.23 0 01-1.88.08zm2.28-1.54a5.42 5.42 0 00.83 0v-.19A1.55 1.55 0 0020 12.6c-1.08 0-1.55.93-1.66 1.92z" fill="#d291ff"/></g></svg>