<svg data-name="Layer 1" xmlns="http://www.w3.org/2000/svg" viewBox="0 0 30 30"><path data-name="path0 fill" d="M10.75 28A4.29 4.29 0 0015 23.66v-4.33h-4.25a4.34 4.34 0 000 8.67z" fill="#0acf83"/><path data-name="path1 fill" d="M6.5 15a4.29 4.29 0 014.25-4.33H15v8.66h-4.25A4.29 4.29 0 016.5 15z" fill="#a259ff"/><path data-name="path1 fill" d="M6.5 6.34A4.29 4.29 0 0110.75 2H15v8.67h-4.25A4.29 4.29 0 016.5 6.34z" fill="#f24e1e"/><path data-name="path2 fill" d="M15 2h4.25a4.29 4.29 0 014.25 4.34 4.29 4.29 0 01-4.25 4.33H15z" fill="#ff7262"/><path data-name="path3 fill" d="M23.5 15a4.25 4.25 0 11-4.25-4.33A4.29 4.29 0 0123.5 15z" fill="#1abcfe"/></svg>