<svg id="Layer_2" data-name="Layer 2" xmlns="http://www.w3.org/2000/svg" viewBox="0 0 30 30"><defs><style>.cls-2{fill:#69d4c8}</style></defs><rect x="1.23" y="1.23" width="27.53" height="27.53" rx="6.77" fill="#fff"/><path class="cls-2" d="M14.87 19.89h-.22a1 1 0 01-.77-1.21 13.7 13.7 0 00.3-2.92A8.21 8.21 0 0013 11.57a1 1 0 011.75-1 10.27 10.27 0 011.48 5.19 15.88 15.88 0 01-.35 3.36 1 1 0 01-1.01.77z"/><path d="M8.74 25.2a4.46 4.46 0 01-3.5-4.09 5.33 5.33 0 011.21-3.49 7.22 7.22 0 013-2 25.47 25.47 0 018.67-1.23v2C8.33 16.5 7.2 19.14 7.2 21.12a2.44 2.44 0 001.93 2.12zm14.16-8.73c-1.37 0-2.49-.08-3.55-.09v-2c1.07 0 2.22 0 3.61.09zm5.95.28l-3.09-.14-1.67-.08.09-2 1.68.08 3.06.14z" fill="#3a828f"/><path class="cls-2" d="M12.32 10a1 1 0 01-.76-.34 14.69 14.69 0 00-1.44-1.4 1 1 0 111.29-1.55 16.79 16.79 0 011.66 1.6 1 1 0 01-.75 1.69zM9.67 25.31a4.22 4.22 0 01-.93-.11 1 1 0 01.44-2 2.09 2.09 0 00.49.05c1.2 0 3.33-.6 4.21-4.62a1 1 0 011.2-.77 1 1 0 01.78 1.21 9.59 9.59 0 01-2 4.28 5.43 5.43 0 01-4.19 1.96z"/><circle class="cls-2" cx="8.12" cy="5.71" r="1.01"/><path d="M22 1.47A6.54 6.54 0 0128.53 8v14A6.54 6.54 0 0122 28.53H8A6.54 6.54 0 011.47 22V8A6.54 6.54 0 018 1.47h14M22 1H8a7 7 0 00-7 7v14a7 7 0 007 7h14a7 7 0 007-7V8a7 7 0 00-7-7z" fill="#e9e9e9"/></svg>