<svg xmlns="http://www.w3.org/2000/svg" width="24" height="24"><g fill="none" fill-rule="evenodd"><path fill="#00C3FF" d="M24 24H0V0h24z"/><path fill="#00AAF0" d="M24 24H12V0h12z"/><path fill="#063E8B" d="M22.594 22.594H1.406V1.406h21.188z"/><path fill="#032E68" d="M22.594 22.594H12V1.406h10.594z"/><path fill="#00C3FF" d="M12.812 10.594l1.18-2.044a3.964 3.964 0 00-2.638-.481l1.458 2.525z"/><path fill="#00AAF0" d="M12.812 13.406l1.18 2.044a3.997 3.997 0 001.736-2.043h-2.916zM13.624 12h2.36c0-.958-.338-1.838-.902-2.525L13.624 12z"/><path fill="#00C3FF" d="M11.188 13.406l-1.18 2.044a3.964 3.964 0 002.638.481l-1.458-2.525zM8.016 12c0 .958.339 1.838.903 2.525L10.377 12H8.016zm.256-1.406h2.916l-1.18-2.044a3.996 3.996 0 00-1.736 2.044z"/><path fill="#CCEFFF" fill-rule="nonzero" d="M13.571 20.975a2.095 2.095 0 01-1.575-.352l-8.105-5.69a2.096 2.096 0 01-.866-1.362 2.095 2.095 0 01.352-1.575l5.69-8.105a2.096 2.096 0 011.362-.866 2.095 2.095 0 011.575.352l8.105 5.69c.461.323.769.807.866 1.362a2.095 2.095 0 01-.352 1.575l-5.69 8.105a2.096 2.096 0 01-1.362.866zm-2.9-16.565a.699.699 0 00-.454.289l-5.69 8.104a.699.699 0 00-.117.526.699.699 0 00.289.454l8.104 5.69a.7.7 0 00.526.117.699.699 0 00.454-.289l5.69-8.104a.699.699 0 00.117-.526.699.699 0 00-.289-.454l-8.104-5.69a.699.699 0 00-.526-.117z"/><path fill="#ACE3FC" d="M20.975 10.429a2.096 2.096 0 00-.866-1.363l-8.105-5.69L12 3.375V5.09l7.301 5.126a.699.699 0 01.171.98L13.784 19.3a.699.699 0 01-.454.289.698.698 0 01-.526-.117L12 18.908v1.718c.46.322 1.018.446 1.571.349a2.096 2.096 0 001.363-.866l5.69-8.105c.323-.46.448-1.02.35-1.575z"/><path fill="#00AAF0" d="M12 15.985c.22 0 .436-.019.646-.053L12 14.812v1.173zm0-7.969v1.172l.812 1.406 1.18-2.044A3.965 3.965 0 0012 8.016z"/></g></svg>