<svg id="Layer_1" data-name="Layer 1" xmlns="http://www.w3.org/2000/svg" viewBox="0 0 30 30"><defs><style>.cls-3{fill:#fdad00}</style></defs><g id="Drawer-website"><g id="sketch-seeklogo.com"><path id="Path" fill="#fdb300" d="M15 2.02l-8.17.85L.5 11.28 15 27.98l14.5-16.7-6.33-8.41L15 2.02z"/><path d="M.5 11.28L15 27.98l-8.63-16.7H.5zm23.13 0L15 27.98l14.5-16.7h-5.87z" fill="#eb6c00"/><path class="cls-3" d="M6.37 11.28L15 27.98l8.63-16.7H6.37z"/><path d="M6.83 2.87l-.46 8.41L15 2.02l-8.17.85zm16.8 8.41l-.46-8.41L15 2.02l8.63 9.26z" fill="#fdd231"/><path class="cls-3" d="M23.63 11.28h5.87l-6.33-8.41.46 8.41zm-23.13 0h5.87l.46-8.41L.5 11.28z"/><path fill="#feeeb7" d="M15 2.02l-8.63 9.26h17.26L15 2.02z"/></g></g></svg>