<svg xmlns="http://www.w3.org/2000/svg" width="50" height="16"><g fill="none"><path fill="#8898aa" d="M20.421.04l-2.507 15.847h4.007L24.427.04h-4.006zM32.51 6.495c-1.4-.702-2.26-1.176-2.26-1.895.018-.653.727-1.322 2.31-1.322a6.882 6.882 0 012.985.587l.364.165.544-3.316A9.978 9.978 0 0032.856.06c-3.957 0-6.744 2.09-6.761 5.079-.033 2.205 1.995 3.43 3.512 4.164 1.55.753 2.078 1.241 2.078 1.91-.017 1.028-1.253 1.502-2.407 1.502-1.599 0-2.457-.244-3.76-.817l-.529-.244-.56 3.446c.941.425 2.673.799 4.47.818 4.206 0 6.943-2.058 6.977-5.244.014-1.747-1.056-3.086-3.366-4.18zM46.728.09h-3.1c-.956 0-1.682.28-2.096 1.275l-5.953 14.523h4.206l1.158-3.144h4.706l.601 3.157h3.71L46.728.089zM42.11 9.57c.08.009 1.614-5.132 1.614-5.132l1.221 5.133H42.11zM14.565.04l-3.927 10.767-.427-2.124c-.726-2.45-3.003-5.112-5.543-6.434L8.264 15.87h4.24L18.805.041h-4.24V.04z"/><path fill="#c0c8d2" d="M8.89 2.084C8.584.875 7.608.06 6.283.044H.064L0 .335C4.85 1.55 8.922 5.287 10.243 8.803L8.89 2.084z"/></g></svg>