<svg xmlns="http://www.w3.org/2000/svg" width="32" height="20"><g fill="none"><path fill="#8898aa" d="M19.978 9.989c0 5.474-4.471 9.91-9.99 9.91C4.472 19.899 0 15.462 0 9.989 0 4.515 4.472.079 9.989.079c5.516 0 9.989 4.436 9.989 9.91z"/><path fill="#c0c8d2" d="M21.985.078c-2.24 0-4.302.74-5.969 1.976l.008.001c.328.314.69.536.968.897l-2.078.033c-.326.326-.622.68-.902 1.05h3.665c.279.331.536.62.77.987h-5.1c-.187.319-.36.647-.51.988h6.19c.163.34.307.596.43.956H12.47c-.11.342-.206.692-.278 1.048h7.558c.074.343.131.66.17.984h-7.878a9.85 9.85 0 00-.05.99h7.985c0 .352-.025.677-.061.992h-7.874c.034.336.084.666.15.99h7.546a11.62 11.62 0 01-.28.98h-7.011c.106.339.235.668.376.989h6.205c-.172.36-.367.65-.582.987H13.33c.202.347.425.678.667.995l3.68.055c-.313.373-.716.598-1.082.925.02.016-.587-.002-1.781-.02a9.995 9.995 0 007.172 3.018c5.519 0 9.992-4.437 9.992-9.91 0-5.474-4.472-9.91-9.992-9.91z"/></g></svg>