<svg xmlns="http://www.w3.org/2000/svg" width="62" height="17"><g fill="none"><path fill="#8898aa" d="M42.042.296h-4.745c-.28 0-.559.28-.698.558L34.645 13.13c0 .28.14.419.419.419h2.512c.279 0 .418-.14.418-.419l.559-3.487c0-.279.279-.558.698-.558h1.535c3.21 0 5.024-1.534 5.443-4.603.28-1.255 0-2.371-.558-3.069C44.833.715 43.577.296 42.04.296m.56 4.603c-.28 1.674-1.536 1.674-2.792 1.674h-.838l.559-3.208c0-.14.14-.279.418-.279h.28c.837 0 1.674 0 2.093.558.28.14.28.558.28 1.255"/><path d="M7.848.296H3.103c-.28 0-.559.28-.698.558L.45 13.13c0 .28.14.419.419.419h2.233c.279 0 .558-.28.698-.558l.558-3.348c0-.279.279-.558.698-.558h1.535c3.21 0 5.024-1.534 5.443-4.603.28-1.255 0-2.371-.558-3.069C10.639.715 9.523.296 7.848.296M8.406 4.9c-.279 1.674-1.535 1.674-2.791 1.674h-.698l.558-3.208c0-.14.14-.279.419-.279h.28c.837 0 1.674 0 2.093.558.14.14.279.558.14 1.255m13.816-.14H19.99c-.14 0-.418.14-.418.279l-.14.697-.14-.279c-.558-.697-1.535-.976-2.651-.976-2.513 0-4.746 1.953-5.164 4.603-.28 1.395.14 2.65.837 3.487.698.837 1.675 1.116 2.931 1.116 2.094 0 3.21-1.255 3.21-1.255l-.14.697c0 .28.14.419.42.419h2.093c.279 0 .558-.28.698-.558l1.256-7.812c-.14-.139-.42-.418-.559-.418m-3.21 4.464c-.279 1.255-1.256 2.231-2.651 2.231-.698 0-1.257-.279-1.536-.558-.279-.418-.418-.976-.418-1.673.14-1.256 1.256-2.232 2.512-2.232.698 0 1.116.279 1.535.558.419.418.558 1.116.558 1.674" fill="#c0c8d2"/><path fill="#8898aa" d="M56.278 4.76h-2.233c-.14 0-.419.14-.419.279l-.14.697-.14-.279c-.557-.697-1.534-.976-2.65-.976-2.513 0-4.746 1.953-5.165 4.603-.28 1.395.14 2.65.837 3.487.698.837 1.675 1.116 2.931 1.116 2.094 0 3.21-1.255 3.21-1.255l-.14.697c0 .28.14.419.42.419h2.093c.28 0 .558-.28.698-.558l1.256-7.812c-.14-.139-.28-.418-.558-.418m-3.21 4.464c-.28 1.255-1.256 2.231-2.652 2.231-.698 0-1.256-.279-1.535-.558-.28-.418-.419-.976-.419-1.673.14-1.256 1.256-2.232 2.512-2.232.698 0 1.117.279 1.535.558.559.418.698 1.116.559 1.674"/><path fill="#c0c8d2" d="M34.366 4.76h-2.373c-.28 0-.419.14-.558.279l-3.07 4.743-1.396-4.464c-.14-.279-.28-.419-.698-.419h-2.233c-.28 0-.419.28-.419.558l2.512 7.393-2.372 3.348c-.14.279 0 .697.279.697h2.233c.279 0 .419-.14.558-.279l7.676-11.02c.419-.418.14-.836-.14-.836"/><path fill="#8898aa" d="M58.93.715l-1.954 12.554c0 .279.14.418.418.418h1.954c.28 0 .558-.279.698-.558L62 .854c0-.279-.14-.418-.419-.418h-2.233c-.14-.14-.279 0-.418.279"/></g></svg>